# xmcd
#
# Track frame offsets: 
#        183
#        10905
#        22508
#        34100
#        46625
#        57680
#        68925
#        80193
#        92043
#        103838
#        113010
#        124613
#        136123
#        146295
#        156885
#        167733
#        178098
#        188188
#        199708
#        210788
#
# Disc length: 2952 seconds
#
# Revision: 2
# Processed by: cddbd v1.5.1PL2 Copyright (c) Steve Scherf et al.
# Submitted via: ExactAudioCopy v0.95b1
#
DISCID=060b8614
DTITLE=Patsy Cline - 20 Golden Memories
DYEAR=1984
DGENRE=Country
TTITLE0=I Don't Wanta
TTITLE1=Let The Teardrops Fall
TTITLE2=I've Loved And Lost Again
TTITLE3=Fingertips
TTITLE4=I Can't Forget
TTITLE5=Just Out Of Reach (Of My Two Arms)
TTITLE6=Hungry For Love
TTITLE7=If I Could Only Stay Asleep
TTITLE8=Today, Tomorrow and Forever
TTITLE9=I Love You Honey
TTITLE10=Never No More
TTITLE11=Walking After Midnight
TTITLE12=Pick Me Up On Your Way Down
TTITLE13=Honky Tonk Merry-Go-Round
TTITLE14=I Cried All The Way To The Alter
TTITLE15=Too Many Secrets
TTITLE16=Three Cigarettes (In An Ashtray)
TTITLE17=In Care Of The Blues
TTITLE18=Stop The World (And Let Me Off)
TTITLE19=I Can See An Angel
EXTD=
EXTT0=
EXTT1=
EXTT2=
EXTT3=
EXTT4=
EXTT5=
EXTT6=
EXTT7=
EXTT8=
EXTT9=
EXTT10=
EXTT11=
EXTT12=
EXTT13=
EXTT14=
EXTT15=
EXTT16=
EXTT17=
EXTT18=
EXTT19=
PLAYORDER=
